# Blender v2.79 (sub 0) OBJ File: 'trap.blend'
# www.blender.org
mtllib nc_rabbits_trap.mtl
o Cube
v -0.500000 0.200000 0.500000
v -0.500000 0.200000 -0.500000
v 0.500000 0.200000 -0.500000
v 0.500000 0.200000 0.500000
v -0.500000 0.500000 0.500000
v -0.500000 0.500000 -0.500000
v 0.500000 0.500000 -0.500000
v 0.500000 0.500000 0.500000
v -0.050000 -0.500000 0.150000
v -0.050000 0.200000 0.150000
v 0.050000 -0.500000 0.150000
v 0.050000 0.200000 0.150000
v -0.050000 -0.500000 0.250000
v -0.050000 0.200000 0.250000
v 0.050000 -0.500000 0.250000
v 0.050000 0.200000 0.250000
v -0.050000 -0.500000 -0.250000
v -0.050000 0.200000 -0.250000
v 0.050000 -0.500000 -0.250000
v 0.050000 0.200000 -0.250000
v -0.050000 -0.500000 -0.150000
v -0.050000 0.200000 -0.150000
v 0.050000 -0.500000 -0.150000
v 0.050000 0.200000 -0.150000
v 0.150000 -0.500000 0.050000
v 0.150000 0.200000 0.050000
v 0.150000 -0.500000 -0.050000
v 0.150000 0.200000 -0.050000
v 0.250000 -0.500000 0.050000
v 0.250000 0.200000 0.050000
v 0.250000 -0.500000 -0.050000
v 0.250000 0.200000 -0.050000
v -0.250000 -0.500000 0.050000
v -0.250000 0.200000 0.050000
v -0.250000 -0.500000 -0.050000
v -0.250000 0.200000 -0.050000
v -0.150000 -0.500000 0.050000
v -0.150000 0.200000 0.050000
v -0.150000 -0.500000 -0.050000
v -0.150000 0.200000 -0.050000
vt 1.000000 1.000000
vt 1.000000 0.500000
vt 0.000000 0.500000
vt 0.000000 1.000000
vt 0.000000 1.000000
vt 0.000000 0.500000
vt 1.000000 0.500000
vt 1.000000 1.000000
vt -0.000000 0.750000
vt -0.000000 0.500000
vt 1.000000 0.500000
vt 1.000000 0.750000
vt 0.500000 0.500000
vt 1.000000 1.000000
vt 0.500000 1.000000
vt 1.000000 1.000000
vt 1.000000 0.750000
vt 0.000000 0.750000
vt 0.000000 0.750000
vt 0.000000 1.000000
vt 1.000000 1.000000
vt 1.000000 0.750000
vt 0.000000 0.000000
vt 0.000000 0.500000
vt 0.125000 0.500000
vt 0.125000 0.000000
vt 0.125000 0.500000
vt 0.125000 0.000000
vt 0.000000 0.000000
vt 0.000000 0.500000
vt 0.125000 0.000000
vt 0.125000 0.500000
vt 0.125000 0.000000
vt 0.125000 0.500000
vt 0.625000 0.218750
vt 0.562500 0.218750
vt 0.562500 0.281250
vt 0.625000 0.281250
vt 0.000000 0.000000
vt 0.000000 0.500000
vt 0.125000 0.500000
vt 0.125000 0.000000
vt 0.125000 0.500000
vt 0.125000 0.000000
vt 0.000000 0.000000
vt 0.000000 0.500000
vt 0.125000 0.000000
vt 0.125000 0.500000
vt 0.125000 0.000000
vt 0.125000 0.500000
vt 0.625000 0.218750
vt 0.562500 0.218750
vt 0.562500 0.281250
vt 0.625000 0.281250
vt 0.000000 0.000000
vt 0.000000 0.500000
vt 0.125000 0.500000
vt 0.125000 0.000000
vt 0.125000 0.500000
vt 0.125000 0.000000
vt 0.000000 0.000000
vt 0.000000 0.500000
vt 0.125000 0.000000
vt 0.125000 0.500000
vt 0.125000 0.000000
vt 0.125000 0.500000
vt 0.625000 0.218750
vt 0.562500 0.218750
vt 0.562500 0.281250
vt 0.625000 0.281250
vt 0.000000 0.000000
vt 0.000000 0.500000
vt 0.125000 0.500000
vt 0.125000 0.000000
vt 0.125000 0.500000
vt 0.125000 0.000000
vt 0.000000 0.000000
vt 0.000000 0.500000
vt 0.125000 0.000000
vt 0.125000 0.500000
vt 0.125000 0.000000
vt 0.125000 0.500000
vt 0.625000 0.218750
vt 0.562500 0.218750
vt 0.562500 0.281250
vt 0.625000 0.281250
vn 0.0000 -1.0000 0.0000
vn 0.0000 1.0000 0.0000
vn -1.0000 0.0000 -0.0000
vn 0.0000 -0.0000 -1.0000
vn 1.0000 -0.0000 0.0000
vn -0.0000 0.0000 1.0000
usemtl Material
s off
f 1/1/1 2/2/1 3/3/1 4/4/1
f 5/5/2 8/6/2 7/7/2 6/8/2
f 1/9/3 5/10/3 6/11/3 2/12/3
f 2/13/4 6/11/4 7/14/4 3/15/4
f 3/16/5 7/17/5 8/18/5 4/4/5
f 5/19/6 1/20/6 4/21/6 8/22/6
f 9/23/4 10/24/4 12/25/4 11/26/4
f 11/27/5 12/28/5 16/29/5 15/30/5
f 15/30/6 16/29/6 14/31/6 13/32/6
f 13/33/3 14/34/3 10/24/3 9/23/3
f 11/35/1 15/36/1 13/37/1 9/38/1
f 17/39/4 18/40/4 20/41/4 19/42/4
f 19/43/5 20/44/5 24/45/5 23/46/5
f 23/46/6 24/45/6 22/47/6 21/48/6
f 21/49/3 22/50/3 18/40/3 17/39/3
f 19/51/1 23/52/1 21/53/1 17/54/1
f 25/55/3 26/56/3 28/57/3 27/58/3
f 27/59/4 28/60/4 32/61/4 31/62/4
f 31/62/5 32/61/5 30/63/5 29/64/5
f 29/65/6 30/66/6 26/56/6 25/55/6
f 27/67/1 31/68/1 29/69/1 25/70/1
f 33/71/3 34/72/3 36/73/3 35/74/3
f 35/75/4 36/76/4 40/77/4 39/78/4
f 39/78/5 40/77/5 38/79/5 37/80/5
f 37/81/6 38/82/6 34/72/6 33/71/6
f 35/83/1 39/84/1 37/85/1 33/86/1
